<svg xmlns="http://www.w3.org/2000/svg" width="1120" height="450" viewBox="0 0 1120 450">
  <defs>
    <marker id="arrow" markerWidth="10" markerHeight="10" refX="9" refY="3" orient="auto">
      <path d="M0,0 L0,6 L9,3 z" fill="#334155"/>
    </marker>
    <style>
      .title { font: 700 28px "Microsoft YaHei", "Noto Sans CJK SC", sans-serif; fill: #0f172a; }
      .text { font: 15px "Microsoft YaHei", "Noto Sans CJK SC", sans-serif; fill: #0f172a; }
      .box { fill: #f8fafc; stroke: #64748b; stroke-width: 1.4; rx: 14; }
      .event { fill: #eff6ff; stroke: #2563eb; stroke-width: 1.4; rx: 14; }
      .warn { fill: #fff7ed; stroke: #ea580c; stroke-width: 1.4; rx: 14; }
      .line { stroke: #334155; stroke-width: 1.7; fill: none; marker-end: url(#arrow); }
    </style>
  </defs>
  <rect width="1120" height="450" fill="#fff"/>
  <text x="40" y="50" class="title">Outbox 事件发布流程图</text>
  <rect x="60" y="160" width="130" height="64" class="box"/><text x="125" y="198" class="text" text-anchor="middle">业务写入</text>
  <rect x="250" y="160" width="130" height="64" class="box"/><text x="315" y="198" class="text" text-anchor="middle">本地事务</text>
  <rect x="445" y="95" width="140" height="64" class="box"/><text x="515" y="133" class="text" text-anchor="middle">业务表</text>
  <rect x="445" y="225" width="140" height="64" class="event"/><text x="515" y="263" class="text" text-anchor="middle">Outbox 表</text>
  <rect x="650" y="225" width="130" height="64" class="event"/><text x="715" y="263" class="text" text-anchor="middle">Relay</text>
  <rect x="845" y="225" width="120" height="64" class="event"/><text x="905" y="263" class="text" text-anchor="middle">Kafka</text>
  <rect x="845" y="335" width="120" height="64" class="warn"/><text x="905" y="373" class="text" text-anchor="middle">重试状态</text>
  <rect x="650" y="95" width="130" height="64" class="box"/><text x="715" y="133" class="text" text-anchor="middle">消费者幂等</text>
  <rect x="845" y="95" width="120" height="64" class="box"/><text x="905" y="133" class="text" text-anchor="middle">读模型</text>
  <path d="M190 192 H250" class="line"/>
  <path d="M380 180 L445 127" class="line"/>
  <path d="M380 205 L445 257" class="line"/>
  <path d="M585 257 H650" class="line"/>
  <path d="M780 257 H845" class="line"/>
  <path d="M905 289 V335" class="line"/>
  <path d="M905 335 C820 310 770 285 780 257" class="line"/>
  <path d="M905 225 C890 160 825 127 780 127" class="line"/>
  <path d="M780 127 H845" class="line"/>
</svg>
